<mxfile host="Electron" modified="2023-11-01T18:51:30.985Z" agent="Mozilla/5.0 (Windows NT 10.0; Win64; x64) AppleWebKit/537.36 (KHTML, like Gecko) draw.io/22.0.3 Chrome/114.0.5735.289 Electron/25.8.4 Safari/537.36" etag="3G7v_c5JhzCw6TqJJBsg" version="22.0.3" type="device">
  <diagram name="Page-1" id="7yzjY0z1a4MoDqZMbbi8">
    <mxGraphModel dx="4700" dy="2874" grid="1" gridSize="10" guides="1" tooltips="1" connect="1" arrows="1" fold="1" page="1" pageScale="1" pageWidth="850" pageHeight="1100" math="0" shadow="0">
      <root>
        <mxCell id="0" />
        <mxCell id="1" parent="0" />
        <mxCell id="WLfPuaKVmuc7hhtlGHbA-1" value="User" style="rounded=0;whiteSpace=wrap;html=1;" vertex="1" parent="1">
          <mxGeometry x="360" y="320" width="200" height="40" as="geometry" />
        </mxCell>
        <mxCell id="WLfPuaKVmuc7hhtlGHbA-2" value="Select" style="rhombus;whiteSpace=wrap;html=1;" vertex="1" parent="1">
          <mxGeometry x="405" y="110" width="110" height="90" as="geometry" />
        </mxCell>
        <mxCell id="WLfPuaKVmuc7hhtlGHbA-4" value="Select" style="rhombus;whiteSpace=wrap;html=1;" vertex="1" parent="1">
          <mxGeometry x="680" y="295" width="110" height="90" as="geometry" />
        </mxCell>
        <mxCell id="WLfPuaKVmuc7hhtlGHbA-5" value="Select" style="rhombus;whiteSpace=wrap;html=1;" vertex="1" parent="1">
          <mxGeometry x="405" y="480" width="110" height="90" as="geometry" />
        </mxCell>
        <mxCell id="WLfPuaKVmuc7hhtlGHbA-6" value="Select" style="rhombus;whiteSpace=wrap;html=1;" vertex="1" parent="1">
          <mxGeometry x="130" y="295" width="110" height="90" as="geometry" />
        </mxCell>
        <mxCell id="WLfPuaKVmuc7hhtlGHbA-7" value="Video Summary" style="rounded=0;whiteSpace=wrap;html=1;" vertex="1" parent="1">
          <mxGeometry x="920" y="320" width="200" height="40" as="geometry" />
        </mxCell>
        <mxCell id="WLfPuaKVmuc7hhtlGHbA-8" value="Video Analysis" style="rounded=0;whiteSpace=wrap;html=1;" vertex="1" parent="1">
          <mxGeometry x="360" y="680" width="200" height="40" as="geometry" />
        </mxCell>
        <mxCell id="WLfPuaKVmuc7hhtlGHbA-9" value="Sentiment Analysis" style="rounded=0;whiteSpace=wrap;html=1;" vertex="1" parent="1">
          <mxGeometry x="360" y="-40" width="200" height="40" as="geometry" />
        </mxCell>
        <mxCell id="WLfPuaKVmuc7hhtlGHbA-10" value="Video Transcript" style="rounded=0;whiteSpace=wrap;html=1;" vertex="1" parent="1">
          <mxGeometry x="-200" y="320" width="200" height="40" as="geometry" />
        </mxCell>
        <mxCell id="WLfPuaKVmuc7hhtlGHbA-12" value="WordCloud" style="rounded=0;whiteSpace=wrap;html=1;" vertex="1" parent="1">
          <mxGeometry x="-200" y="-40" width="200" height="40" as="geometry" />
        </mxCell>
        <mxCell id="WLfPuaKVmuc7hhtlGHbA-13" value="Graphs" style="rounded=0;whiteSpace=wrap;html=1;" vertex="1" parent="1">
          <mxGeometry x="920" y="-40" width="200" height="40" as="geometry" />
        </mxCell>
        <mxCell id="WLfPuaKVmuc7hhtlGHbA-14" value="Has" style="rhombus;whiteSpace=wrap;html=1;" vertex="1" parent="1">
          <mxGeometry x="130" y="-65" width="110" height="90" as="geometry" />
        </mxCell>
        <mxCell id="WLfPuaKVmuc7hhtlGHbA-15" value="Has" style="rhombus;whiteSpace=wrap;html=1;" vertex="1" parent="1">
          <mxGeometry x="680" y="-65" width="110" height="90" as="geometry" />
        </mxCell>
        <mxCell id="WLfPuaKVmuc7hhtlGHbA-16" value="Have" style="rhombus;whiteSpace=wrap;html=1;" vertex="1" parent="1">
          <mxGeometry x="965" y="110" width="110" height="90" as="geometry" />
        </mxCell>
        <mxCell id="WLfPuaKVmuc7hhtlGHbA-21" value="Calls" style="rhombus;whiteSpace=wrap;html=1;" vertex="1" parent="1">
          <mxGeometry x="-152.5" y="640" width="110" height="90" as="geometry" />
        </mxCell>
        <mxCell id="WLfPuaKVmuc7hhtlGHbA-22" value="YouTube APIs" style="rounded=0;whiteSpace=wrap;html=1;" vertex="1" parent="1">
          <mxGeometry x="-294" y="786" width="200" height="40" as="geometry" />
        </mxCell>
        <mxCell id="WLfPuaKVmuc7hhtlGHbA-25" value="Have" style="rhombus;whiteSpace=wrap;html=1;" vertex="1" parent="1">
          <mxGeometry x="-440" y="307.5" width="110" height="90" as="geometry" />
        </mxCell>
        <mxCell id="WLfPuaKVmuc7hhtlGHbA-28" value="Transcript" style="rounded=0;whiteSpace=wrap;html=1;" vertex="1" parent="1">
          <mxGeometry x="-730" y="332.5" width="200" height="40" as="geometry" />
        </mxCell>
        <mxCell id="WLfPuaKVmuc7hhtlGHbA-29" value="User Name" style="ellipse;whiteSpace=wrap;html=1;" vertex="1" parent="1">
          <mxGeometry x="265" y="230" width="115" height="65" as="geometry" />
        </mxCell>
        <mxCell id="WLfPuaKVmuc7hhtlGHbA-30" value="Phone No." style="ellipse;whiteSpace=wrap;html=1;" vertex="1" parent="1">
          <mxGeometry x="540" y="230" width="110" height="65" as="geometry" />
        </mxCell>
        <mxCell id="WLfPuaKVmuc7hhtlGHbA-31" value="Name" style="ellipse;whiteSpace=wrap;html=1;" vertex="1" parent="1">
          <mxGeometry x="540" y="400" width="110" height="60" as="geometry" />
        </mxCell>
        <mxCell id="WLfPuaKVmuc7hhtlGHbA-32" value="Email" style="ellipse;whiteSpace=wrap;html=1;" vertex="1" parent="1">
          <mxGeometry x="260" y="400" width="120" height="60" as="geometry" />
        </mxCell>
        <mxCell id="WLfPuaKVmuc7hhtlGHbA-33" value="" style="endArrow=none;html=1;rounded=0;entryX=0.5;entryY=1;entryDx=0;entryDy=0;" edge="1" parent="1" target="WLfPuaKVmuc7hhtlGHbA-30">
          <mxGeometry width="50" height="50" relative="1" as="geometry">
            <mxPoint x="560" y="320" as="sourcePoint" />
            <mxPoint x="610" y="270" as="targetPoint" />
          </mxGeometry>
        </mxCell>
        <mxCell id="WLfPuaKVmuc7hhtlGHbA-34" value="" style="endArrow=none;html=1;rounded=0;entryX=0.604;entryY=1.018;entryDx=0;entryDy=0;entryPerimeter=0;exitX=0;exitY=0;exitDx=0;exitDy=0;" edge="1" parent="1" source="WLfPuaKVmuc7hhtlGHbA-1" target="WLfPuaKVmuc7hhtlGHbA-29">
          <mxGeometry width="50" height="50" relative="1" as="geometry">
            <mxPoint x="570" y="330" as="sourcePoint" />
            <mxPoint x="598" y="305" as="targetPoint" />
          </mxGeometry>
        </mxCell>
        <mxCell id="WLfPuaKVmuc7hhtlGHbA-35" value="" style="endArrow=none;html=1;rounded=0;entryX=1;entryY=1;entryDx=0;entryDy=0;exitX=0.5;exitY=0;exitDx=0;exitDy=0;" edge="1" parent="1" source="WLfPuaKVmuc7hhtlGHbA-31" target="WLfPuaKVmuc7hhtlGHbA-1">
          <mxGeometry width="50" height="50" relative="1" as="geometry">
            <mxPoint x="580" y="340" as="sourcePoint" />
            <mxPoint x="608" y="315" as="targetPoint" />
          </mxGeometry>
        </mxCell>
        <mxCell id="WLfPuaKVmuc7hhtlGHbA-36" value="" style="endArrow=none;html=1;rounded=0;entryX=0.5;entryY=0;entryDx=0;entryDy=0;exitX=0;exitY=1;exitDx=0;exitDy=0;" edge="1" parent="1" source="WLfPuaKVmuc7hhtlGHbA-1" target="WLfPuaKVmuc7hhtlGHbA-32">
          <mxGeometry width="50" height="50" relative="1" as="geometry">
            <mxPoint x="590" y="350" as="sourcePoint" />
            <mxPoint x="618" y="325" as="targetPoint" />
          </mxGeometry>
        </mxCell>
        <mxCell id="WLfPuaKVmuc7hhtlGHbA-37" value="" style="endArrow=none;html=1;rounded=0;entryX=0.5;entryY=1;entryDx=0;entryDy=0;" edge="1" parent="1" target="WLfPuaKVmuc7hhtlGHbA-2">
          <mxGeometry width="50" height="50" relative="1" as="geometry">
            <mxPoint x="460" y="320" as="sourcePoint" />
            <mxPoint x="510" y="270" as="targetPoint" />
          </mxGeometry>
        </mxCell>
        <mxCell id="WLfPuaKVmuc7hhtlGHbA-38" value="" style="endArrow=none;html=1;rounded=0;entryX=0.5;entryY=1;entryDx=0;entryDy=0;" edge="1" parent="1" target="WLfPuaKVmuc7hhtlGHbA-9">
          <mxGeometry width="50" height="50" relative="1" as="geometry">
            <mxPoint x="460" y="110" as="sourcePoint" />
            <mxPoint x="510" y="60" as="targetPoint" />
          </mxGeometry>
        </mxCell>
        <mxCell id="WLfPuaKVmuc7hhtlGHbA-39" value="1" style="text;html=1;strokeColor=none;fillColor=none;align=center;verticalAlign=middle;whiteSpace=wrap;rounded=0;" vertex="1" parent="1">
          <mxGeometry x="460" y="200" width="60" height="30" as="geometry" />
        </mxCell>
        <mxCell id="WLfPuaKVmuc7hhtlGHbA-40" value="N" style="text;html=1;strokeColor=none;fillColor=none;align=center;verticalAlign=middle;whiteSpace=wrap;rounded=0;" vertex="1" parent="1">
          <mxGeometry x="460" y="70" width="60" height="30" as="geometry" />
        </mxCell>
        <mxCell id="WLfPuaKVmuc7hhtlGHbA-41" value="" style="endArrow=none;html=1;rounded=0;entryX=0;entryY=0.5;entryDx=0;entryDy=0;" edge="1" parent="1" target="WLfPuaKVmuc7hhtlGHbA-4">
          <mxGeometry width="50" height="50" relative="1" as="geometry">
            <mxPoint x="560" y="340" as="sourcePoint" />
            <mxPoint x="610" y="290" as="targetPoint" />
          </mxGeometry>
        </mxCell>
        <mxCell id="WLfPuaKVmuc7hhtlGHbA-42" value="" style="endArrow=none;html=1;rounded=0;entryX=1;entryY=0.5;entryDx=0;entryDy=0;exitX=0;exitY=0.5;exitDx=0;exitDy=0;" edge="1" parent="1" source="WLfPuaKVmuc7hhtlGHbA-1" target="WLfPuaKVmuc7hhtlGHbA-6">
          <mxGeometry width="50" height="50" relative="1" as="geometry">
            <mxPoint x="570" y="350" as="sourcePoint" />
            <mxPoint x="690" y="350" as="targetPoint" />
          </mxGeometry>
        </mxCell>
        <mxCell id="WLfPuaKVmuc7hhtlGHbA-44" value="" style="endArrow=none;html=1;rounded=0;exitX=1;exitY=0.5;exitDx=0;exitDy=0;" edge="1" parent="1" source="WLfPuaKVmuc7hhtlGHbA-10">
          <mxGeometry width="50" height="50" relative="1" as="geometry">
            <mxPoint x="80" y="390" as="sourcePoint" />
            <mxPoint x="130" y="340" as="targetPoint" />
          </mxGeometry>
        </mxCell>
        <mxCell id="WLfPuaKVmuc7hhtlGHbA-45" value="" style="endArrow=none;html=1;rounded=0;exitX=0;exitY=0.5;exitDx=0;exitDy=0;entryX=1;entryY=0.5;entryDx=0;entryDy=0;" edge="1" parent="1" source="WLfPuaKVmuc7hhtlGHbA-7" target="WLfPuaKVmuc7hhtlGHbA-4">
          <mxGeometry width="50" height="50" relative="1" as="geometry">
            <mxPoint x="10" y="350" as="sourcePoint" />
            <mxPoint x="140" y="350" as="targetPoint" />
          </mxGeometry>
        </mxCell>
        <mxCell id="WLfPuaKVmuc7hhtlGHbA-46" value="Negative &lt;br&gt;Sentiment" style="ellipse;whiteSpace=wrap;html=1;" vertex="1" parent="1">
          <mxGeometry x="550" y="-160" width="115" height="65" as="geometry" />
        </mxCell>
        <mxCell id="WLfPuaKVmuc7hhtlGHbA-47" value="Neutral &lt;br&gt;Sentiment" style="ellipse;whiteSpace=wrap;html=1;" vertex="1" parent="1">
          <mxGeometry x="420" y="-160" width="115" height="65" as="geometry" />
        </mxCell>
        <mxCell id="WLfPuaKVmuc7hhtlGHbA-48" value="Postive &lt;br&gt;Sentiment" style="ellipse;whiteSpace=wrap;html=1;" vertex="1" parent="1">
          <mxGeometry x="290" y="-160" width="115" height="65" as="geometry" />
        </mxCell>
        <mxCell id="WLfPuaKVmuc7hhtlGHbA-49" value="Time" style="ellipse;whiteSpace=wrap;html=1;" vertex="1" parent="1">
          <mxGeometry x="565" y="40" width="115" height="65" as="geometry" />
        </mxCell>
        <mxCell id="WLfPuaKVmuc7hhtlGHbA-50" value="Top&lt;br&gt;Comments" style="ellipse;whiteSpace=wrap;html=1;" vertex="1" parent="1">
          <mxGeometry x="270" y="40" width="115" height="65" as="geometry" />
        </mxCell>
        <mxCell id="WLfPuaKVmuc7hhtlGHbA-51" value="" style="endArrow=none;html=1;rounded=0;entryX=0.5;entryY=1;entryDx=0;entryDy=0;exitX=0.25;exitY=0;exitDx=0;exitDy=0;" edge="1" parent="1" source="WLfPuaKVmuc7hhtlGHbA-9" target="WLfPuaKVmuc7hhtlGHbA-48">
          <mxGeometry width="50" height="50" relative="1" as="geometry">
            <mxPoint x="270" y="30" as="sourcePoint" />
            <mxPoint x="320" y="-20" as="targetPoint" />
          </mxGeometry>
        </mxCell>
        <mxCell id="WLfPuaKVmuc7hhtlGHbA-52" value="" style="endArrow=none;html=1;rounded=0;entryX=0.5;entryY=1;entryDx=0;entryDy=0;exitX=0.588;exitY=0;exitDx=0;exitDy=0;exitPerimeter=0;" edge="1" parent="1" source="WLfPuaKVmuc7hhtlGHbA-9" target="WLfPuaKVmuc7hhtlGHbA-47">
          <mxGeometry width="50" height="50" relative="1" as="geometry">
            <mxPoint x="420" y="-30" as="sourcePoint" />
            <mxPoint x="358" y="-65" as="targetPoint" />
          </mxGeometry>
        </mxCell>
        <mxCell id="WLfPuaKVmuc7hhtlGHbA-53" value="" style="endArrow=none;html=1;rounded=0;entryX=0.5;entryY=1;entryDx=0;entryDy=0;exitX=0.75;exitY=0;exitDx=0;exitDy=0;" edge="1" parent="1" source="WLfPuaKVmuc7hhtlGHbA-9" target="WLfPuaKVmuc7hhtlGHbA-46">
          <mxGeometry width="50" height="50" relative="1" as="geometry">
            <mxPoint x="430" y="-20" as="sourcePoint" />
            <mxPoint x="368" y="-55" as="targetPoint" />
          </mxGeometry>
        </mxCell>
        <mxCell id="WLfPuaKVmuc7hhtlGHbA-54" value="" style="endArrow=none;html=1;rounded=0;exitX=0.25;exitY=1;exitDx=0;exitDy=0;" edge="1" parent="1" source="WLfPuaKVmuc7hhtlGHbA-9">
          <mxGeometry width="50" height="50" relative="1" as="geometry">
            <mxPoint x="290" y="90" as="sourcePoint" />
            <mxPoint x="340" y="40" as="targetPoint" />
          </mxGeometry>
        </mxCell>
        <mxCell id="WLfPuaKVmuc7hhtlGHbA-55" value="" style="endArrow=none;html=1;rounded=0;exitX=0.75;exitY=1;exitDx=0;exitDy=0;" edge="1" parent="1" source="WLfPuaKVmuc7hhtlGHbA-9">
          <mxGeometry width="50" height="50" relative="1" as="geometry">
            <mxPoint x="570" y="90" as="sourcePoint" />
            <mxPoint x="620" y="40" as="targetPoint" />
          </mxGeometry>
        </mxCell>
        <mxCell id="WLfPuaKVmuc7hhtlGHbA-56" value="" style="endArrow=none;html=1;rounded=0;exitX=1;exitY=0.5;exitDx=0;exitDy=0;entryX=0;entryY=0.5;entryDx=0;entryDy=0;" edge="1" parent="1" source="WLfPuaKVmuc7hhtlGHbA-9" target="WLfPuaKVmuc7hhtlGHbA-15">
          <mxGeometry width="50" height="50" relative="1" as="geometry">
            <mxPoint x="590" y="10" as="sourcePoint" />
            <mxPoint x="640" y="-40" as="targetPoint" />
          </mxGeometry>
        </mxCell>
        <mxCell id="WLfPuaKVmuc7hhtlGHbA-57" value="" style="endArrow=none;html=1;rounded=0;entryX=1;entryY=0.5;entryDx=0;entryDy=0;exitX=0;exitY=0.5;exitDx=0;exitDy=0;" edge="1" parent="1" source="WLfPuaKVmuc7hhtlGHbA-13" target="WLfPuaKVmuc7hhtlGHbA-15">
          <mxGeometry width="50" height="50" relative="1" as="geometry">
            <mxPoint x="560" y="180" as="sourcePoint" />
            <mxPoint x="610" y="130" as="targetPoint" />
          </mxGeometry>
        </mxCell>
        <mxCell id="WLfPuaKVmuc7hhtlGHbA-58" value="N" style="text;html=1;strokeColor=none;fillColor=none;align=center;verticalAlign=middle;whiteSpace=wrap;rounded=0;" vertex="1" parent="1">
          <mxGeometry x="620" y="-50" width="60" height="30" as="geometry" />
        </mxCell>
        <mxCell id="WLfPuaKVmuc7hhtlGHbA-59" value="1" style="text;html=1;strokeColor=none;fillColor=none;align=center;verticalAlign=middle;whiteSpace=wrap;rounded=0;" vertex="1" parent="1">
          <mxGeometry x="790" y="-50" width="60" height="30" as="geometry" />
        </mxCell>
        <mxCell id="WLfPuaKVmuc7hhtlGHbA-60" value="Line&lt;br&gt;Chart" style="ellipse;whiteSpace=wrap;html=1;" vertex="1" parent="1">
          <mxGeometry x="1150" y="45" width="115" height="65" as="geometry" />
        </mxCell>
        <mxCell id="WLfPuaKVmuc7hhtlGHbA-61" value="Pie&lt;br&gt;Chart" style="ellipse;whiteSpace=wrap;html=1;" vertex="1" parent="1">
          <mxGeometry x="1170" y="-52.5" width="115" height="65" as="geometry" />
        </mxCell>
        <mxCell id="WLfPuaKVmuc7hhtlGHbA-62" value="Histogram&lt;br&gt;Chart" style="ellipse;whiteSpace=wrap;html=1;" vertex="1" parent="1">
          <mxGeometry x="1090" y="-140" width="115" height="65" as="geometry" />
        </mxCell>
        <mxCell id="WLfPuaKVmuc7hhtlGHbA-63" value="Bar &lt;br&gt;Chart" style="ellipse;whiteSpace=wrap;html=1;" vertex="1" parent="1">
          <mxGeometry x="915" y="-150" width="115" height="65" as="geometry" />
        </mxCell>
        <mxCell id="WLfPuaKVmuc7hhtlGHbA-64" value="" style="endArrow=none;html=1;rounded=0;entryX=0.443;entryY=0.045;entryDx=0;entryDy=0;exitX=0.5;exitY=1;exitDx=0;exitDy=0;entryPerimeter=0;" edge="1" parent="1" source="WLfPuaKVmuc7hhtlGHbA-63" target="WLfPuaKVmuc7hhtlGHbA-13">
          <mxGeometry width="50" height="50" relative="1" as="geometry">
            <mxPoint x="920" y="90" as="sourcePoint" />
            <mxPoint x="970" y="40" as="targetPoint" />
          </mxGeometry>
        </mxCell>
        <mxCell id="WLfPuaKVmuc7hhtlGHbA-65" value="" style="endArrow=none;html=1;rounded=0;entryX=1;entryY=0.5;entryDx=0;entryDy=0;exitX=0;exitY=0.5;exitDx=0;exitDy=0;" edge="1" parent="1" source="WLfPuaKVmuc7hhtlGHbA-61" target="WLfPuaKVmuc7hhtlGHbA-13">
          <mxGeometry width="50" height="50" relative="1" as="geometry">
            <mxPoint x="948" y="-75" as="sourcePoint" />
            <mxPoint x="980" y="-30" as="targetPoint" />
          </mxGeometry>
        </mxCell>
        <mxCell id="WLfPuaKVmuc7hhtlGHbA-66" value="" style="endArrow=none;html=1;rounded=0;entryX=0.75;entryY=0;entryDx=0;entryDy=0;exitX=0.5;exitY=1;exitDx=0;exitDy=0;" edge="1" parent="1" source="WLfPuaKVmuc7hhtlGHbA-62" target="WLfPuaKVmuc7hhtlGHbA-13">
          <mxGeometry width="50" height="50" relative="1" as="geometry">
            <mxPoint x="958" y="-65" as="sourcePoint" />
            <mxPoint x="990" y="-20" as="targetPoint" />
          </mxGeometry>
        </mxCell>
        <mxCell id="WLfPuaKVmuc7hhtlGHbA-67" value="" style="endArrow=none;html=1;rounded=0;entryX=0.75;entryY=1;entryDx=0;entryDy=0;exitX=0;exitY=0.5;exitDx=0;exitDy=0;" edge="1" parent="1" source="WLfPuaKVmuc7hhtlGHbA-60" target="WLfPuaKVmuc7hhtlGHbA-13">
          <mxGeometry width="50" height="50" relative="1" as="geometry">
            <mxPoint x="968" y="-55" as="sourcePoint" />
            <mxPoint x="1000" y="-10" as="targetPoint" />
          </mxGeometry>
        </mxCell>
        <mxCell id="WLfPuaKVmuc7hhtlGHbA-68" value="N" style="text;html=1;strokeColor=none;fillColor=none;align=center;verticalAlign=middle;whiteSpace=wrap;rounded=0;" vertex="1" parent="1">
          <mxGeometry x="630" y="310" width="60" height="30" as="geometry" />
        </mxCell>
        <mxCell id="WLfPuaKVmuc7hhtlGHbA-69" value="N" style="text;html=1;strokeColor=none;fillColor=none;align=center;verticalAlign=middle;whiteSpace=wrap;rounded=0;" vertex="1" parent="1">
          <mxGeometry x="780" y="310" width="60" height="30" as="geometry" />
        </mxCell>
        <mxCell id="WLfPuaKVmuc7hhtlGHbA-70" value="" style="endArrow=none;html=1;rounded=0;exitX=0.5;exitY=0;exitDx=0;exitDy=0;" edge="1" parent="1" source="WLfPuaKVmuc7hhtlGHbA-16">
          <mxGeometry width="50" height="50" relative="1" as="geometry">
            <mxPoint x="970" y="50" as="sourcePoint" />
            <mxPoint x="1020" as="targetPoint" />
          </mxGeometry>
        </mxCell>
        <mxCell id="WLfPuaKVmuc7hhtlGHbA-71" value="" style="endArrow=none;html=1;rounded=0;exitX=0.5;exitY=0;exitDx=0;exitDy=0;" edge="1" parent="1" source="WLfPuaKVmuc7hhtlGHbA-7">
          <mxGeometry width="50" height="50" relative="1" as="geometry">
            <mxPoint x="970" y="250" as="sourcePoint" />
            <mxPoint x="1020" y="200" as="targetPoint" />
          </mxGeometry>
        </mxCell>
        <mxCell id="WLfPuaKVmuc7hhtlGHbA-72" value="N" style="text;html=1;strokeColor=none;fillColor=none;align=center;verticalAlign=middle;whiteSpace=wrap;rounded=0;" vertex="1" parent="1">
          <mxGeometry x="1030" y="200" width="60" height="30" as="geometry" />
        </mxCell>
        <mxCell id="WLfPuaKVmuc7hhtlGHbA-73" value="1" style="text;html=1;strokeColor=none;fillColor=none;align=center;verticalAlign=middle;whiteSpace=wrap;rounded=0;" vertex="1" parent="1">
          <mxGeometry x="1030" y="70" width="60" height="30" as="geometry" />
        </mxCell>
        <mxCell id="WLfPuaKVmuc7hhtlGHbA-75" value="Time&lt;br&gt;Duration" style="ellipse;whiteSpace=wrap;html=1;" vertex="1" parent="1">
          <mxGeometry x="840" y="397.5" width="115" height="65" as="geometry" />
        </mxCell>
        <mxCell id="WLfPuaKVmuc7hhtlGHbA-76" value="Video &lt;br&gt;Transcirpt" style="ellipse;whiteSpace=wrap;html=1;" vertex="1" parent="1">
          <mxGeometry x="1160" y="210" width="115" height="65" as="geometry" />
        </mxCell>
        <mxCell id="WLfPuaKVmuc7hhtlGHbA-77" value="Video&lt;br&gt;Link&amp;nbsp;" style="ellipse;whiteSpace=wrap;html=1;" vertex="1" parent="1">
          <mxGeometry x="1160" y="397.5" width="115" height="65" as="geometry" />
        </mxCell>
        <mxCell id="WLfPuaKVmuc7hhtlGHbA-78" value="Video &lt;br&gt;Tiltle" style="ellipse;whiteSpace=wrap;html=1;" vertex="1" parent="1">
          <mxGeometry x="1160" y="310" width="115" height="60" as="geometry" />
        </mxCell>
        <mxCell id="WLfPuaKVmuc7hhtlGHbA-81" value="Date" style="ellipse;whiteSpace=wrap;html=1;" vertex="1" parent="1">
          <mxGeometry x="840" y="220" width="115" height="65" as="geometry" />
        </mxCell>
        <mxCell id="WLfPuaKVmuc7hhtlGHbA-82" value="" style="endArrow=none;html=1;rounded=0;entryX=0;entryY=0.5;entryDx=0;entryDy=0;exitX=0.75;exitY=0;exitDx=0;exitDy=0;" edge="1" parent="1" source="WLfPuaKVmuc7hhtlGHbA-7" target="WLfPuaKVmuc7hhtlGHbA-76">
          <mxGeometry width="50" height="50" relative="1" as="geometry">
            <mxPoint x="950" y="300" as="sourcePoint" />
            <mxPoint x="1000" y="250" as="targetPoint" />
          </mxGeometry>
        </mxCell>
        <mxCell id="WLfPuaKVmuc7hhtlGHbA-84" value="" style="endArrow=none;html=1;rounded=0;entryX=0;entryY=0.5;entryDx=0;entryDy=0;exitX=1;exitY=0.5;exitDx=0;exitDy=0;" edge="1" parent="1" source="WLfPuaKVmuc7hhtlGHbA-7" target="WLfPuaKVmuc7hhtlGHbA-78">
          <mxGeometry width="50" height="50" relative="1" as="geometry">
            <mxPoint x="1080" y="330" as="sourcePoint" />
            <mxPoint x="1170" y="283" as="targetPoint" />
          </mxGeometry>
        </mxCell>
        <mxCell id="WLfPuaKVmuc7hhtlGHbA-85" value="" style="endArrow=none;html=1;rounded=0;entryX=0;entryY=0.5;entryDx=0;entryDy=0;exitX=0.75;exitY=1;exitDx=0;exitDy=0;" edge="1" parent="1" source="WLfPuaKVmuc7hhtlGHbA-7" target="WLfPuaKVmuc7hhtlGHbA-77">
          <mxGeometry width="50" height="50" relative="1" as="geometry">
            <mxPoint x="1090" y="340" as="sourcePoint" />
            <mxPoint x="1180" y="293" as="targetPoint" />
          </mxGeometry>
        </mxCell>
        <mxCell id="WLfPuaKVmuc7hhtlGHbA-86" value="" style="endArrow=none;html=1;rounded=0;entryX=0.5;entryY=0;entryDx=0;entryDy=0;exitX=0;exitY=1;exitDx=0;exitDy=0;" edge="1" parent="1" source="WLfPuaKVmuc7hhtlGHbA-7" target="WLfPuaKVmuc7hhtlGHbA-75">
          <mxGeometry width="50" height="50" relative="1" as="geometry">
            <mxPoint x="1100" y="350" as="sourcePoint" />
            <mxPoint x="1190" y="303" as="targetPoint" />
          </mxGeometry>
        </mxCell>
        <mxCell id="WLfPuaKVmuc7hhtlGHbA-87" value="" style="endArrow=none;html=1;rounded=0;entryX=0.5;entryY=1;entryDx=0;entryDy=0;exitX=0;exitY=0;exitDx=0;exitDy=0;" edge="1" parent="1" source="WLfPuaKVmuc7hhtlGHbA-7" target="WLfPuaKVmuc7hhtlGHbA-81">
          <mxGeometry width="50" height="50" relative="1" as="geometry">
            <mxPoint x="1110" y="360" as="sourcePoint" />
            <mxPoint x="1200" y="313" as="targetPoint" />
          </mxGeometry>
        </mxCell>
        <mxCell id="WLfPuaKVmuc7hhtlGHbA-93" value="Transcript &lt;br&gt;Link" style="ellipse;whiteSpace=wrap;html=1;" vertex="1" parent="1">
          <mxGeometry x="-530" y="165" width="115" height="65" as="geometry" />
        </mxCell>
        <mxCell id="WLfPuaKVmuc7hhtlGHbA-94" value="Transcript ID" style="ellipse;whiteSpace=wrap;html=1;" vertex="1" parent="1">
          <mxGeometry x="-730" y="165" width="115" height="65" as="geometry" />
        </mxCell>
        <mxCell id="WLfPuaKVmuc7hhtlGHbA-95" value="Sentence &lt;br&gt;Count" style="ellipse;whiteSpace=wrap;html=1;" vertex="1" parent="1">
          <mxGeometry x="-930" y="255" width="115" height="65" as="geometry" />
        </mxCell>
        <mxCell id="WLfPuaKVmuc7hhtlGHbA-96" value="Word &lt;br&gt;Count" style="ellipse;whiteSpace=wrap;html=1;" vertex="1" parent="1">
          <mxGeometry x="-835" y="440" width="115" height="65" as="geometry" />
        </mxCell>
        <mxCell id="WLfPuaKVmuc7hhtlGHbA-97" value="Length of &lt;br&gt;Summary" style="ellipse;whiteSpace=wrap;html=1;" vertex="1" parent="1">
          <mxGeometry x="-635" y="460" width="115" height="65" as="geometry" />
        </mxCell>
        <mxCell id="WLfPuaKVmuc7hhtlGHbA-98" style="edgeStyle=orthogonalEdgeStyle;rounded=0;orthogonalLoop=1;jettySize=auto;html=1;exitX=0.5;exitY=1;exitDx=0;exitDy=0;" edge="1" parent="1" source="WLfPuaKVmuc7hhtlGHbA-96" target="WLfPuaKVmuc7hhtlGHbA-96">
          <mxGeometry relative="1" as="geometry" />
        </mxCell>
        <mxCell id="WLfPuaKVmuc7hhtlGHbA-101" value="" style="endArrow=none;html=1;rounded=0;entryX=0;entryY=0.25;entryDx=0;entryDy=0;exitX=1;exitY=0.5;exitDx=0;exitDy=0;" edge="1" parent="1" source="WLfPuaKVmuc7hhtlGHbA-95" target="WLfPuaKVmuc7hhtlGHbA-28">
          <mxGeometry width="50" height="50" relative="1" as="geometry">
            <mxPoint x="-810" y="300" as="sourcePoint" />
            <mxPoint x="1010" y="720" as="targetPoint" />
          </mxGeometry>
        </mxCell>
        <mxCell id="WLfPuaKVmuc7hhtlGHbA-102" value="" style="endArrow=none;html=1;rounded=0;exitX=0.5;exitY=0;exitDx=0;exitDy=0;entryX=0;entryY=1;entryDx=0;entryDy=0;" edge="1" parent="1" source="WLfPuaKVmuc7hhtlGHbA-96" target="WLfPuaKVmuc7hhtlGHbA-28">
          <mxGeometry width="50" height="50" relative="1" as="geometry">
            <mxPoint x="1070" y="770" as="sourcePoint" />
            <mxPoint x="1120" y="720" as="targetPoint" />
          </mxGeometry>
        </mxCell>
        <mxCell id="WLfPuaKVmuc7hhtlGHbA-103" value="" style="endArrow=none;html=1;rounded=0;entryX=0.5;entryY=0;entryDx=0;entryDy=0;exitX=0.75;exitY=1;exitDx=0;exitDy=0;" edge="1" parent="1" source="WLfPuaKVmuc7hhtlGHbA-28" target="WLfPuaKVmuc7hhtlGHbA-97">
          <mxGeometry width="50" height="50" relative="1" as="geometry">
            <mxPoint x="-550" y="370" as="sourcePoint" />
            <mxPoint x="1170" y="630" as="targetPoint" />
          </mxGeometry>
        </mxCell>
        <mxCell id="WLfPuaKVmuc7hhtlGHbA-104" value="" style="endArrow=none;html=1;rounded=0;exitX=0.5;exitY=0;exitDx=0;exitDy=0;" edge="1" parent="1" source="WLfPuaKVmuc7hhtlGHbA-5">
          <mxGeometry width="50" height="50" relative="1" as="geometry">
            <mxPoint x="410" y="410" as="sourcePoint" />
            <mxPoint x="460" y="360" as="targetPoint" />
          </mxGeometry>
        </mxCell>
        <mxCell id="WLfPuaKVmuc7hhtlGHbA-105" value="" style="endArrow=none;html=1;rounded=0;exitX=0.5;exitY=0;exitDx=0;exitDy=0;" edge="1" parent="1" source="WLfPuaKVmuc7hhtlGHbA-8">
          <mxGeometry width="50" height="50" relative="1" as="geometry">
            <mxPoint x="410" y="620" as="sourcePoint" />
            <mxPoint x="460" y="570" as="targetPoint" />
          </mxGeometry>
        </mxCell>
        <mxCell id="WLfPuaKVmuc7hhtlGHbA-106" value="Channel &lt;br&gt;Name" style="ellipse;whiteSpace=wrap;html=1;" vertex="1" parent="1">
          <mxGeometry x="592.5" y="680" width="115" height="65" as="geometry" />
        </mxCell>
        <mxCell id="WLfPuaKVmuc7hhtlGHbA-107" value="Likes" style="ellipse;whiteSpace=wrap;html=1;" vertex="1" parent="1">
          <mxGeometry x="535" y="773.5" width="115" height="65" as="geometry" />
        </mxCell>
        <mxCell id="WLfPuaKVmuc7hhtlGHbA-108" value="Dislikes" style="ellipse;whiteSpace=wrap;html=1;" vertex="1" parent="1">
          <mxGeometry x="390" y="780" width="115" height="65" as="geometry" />
        </mxCell>
        <mxCell id="WLfPuaKVmuc7hhtlGHbA-109" value="Comments" style="ellipse;whiteSpace=wrap;html=1;" vertex="1" parent="1">
          <mxGeometry x="230" y="773.5" width="115" height="65" as="geometry" />
        </mxCell>
        <mxCell id="WLfPuaKVmuc7hhtlGHbA-110" value="Video &lt;br&gt;Name" style="ellipse;whiteSpace=wrap;html=1;" vertex="1" parent="1">
          <mxGeometry x="550" y="590" width="115" height="65" as="geometry" />
        </mxCell>
        <mxCell id="WLfPuaKVmuc7hhtlGHbA-111" value="Channel &lt;br&gt;Link" style="ellipse;whiteSpace=wrap;html=1;" vertex="1" parent="1">
          <mxGeometry x="290" y="570" width="115" height="65" as="geometry" />
        </mxCell>
        <mxCell id="WLfPuaKVmuc7hhtlGHbA-112" value="" style="endArrow=none;html=1;rounded=0;exitX=0.25;exitY=0;exitDx=0;exitDy=0;" edge="1" parent="1" source="WLfPuaKVmuc7hhtlGHbA-28">
          <mxGeometry width="50" height="50" relative="1" as="geometry">
            <mxPoint x="-720" y="280" as="sourcePoint" />
            <mxPoint x="-670" y="230" as="targetPoint" />
          </mxGeometry>
        </mxCell>
        <mxCell id="WLfPuaKVmuc7hhtlGHbA-113" value="" style="endArrow=none;html=1;rounded=0;exitX=1;exitY=0;exitDx=0;exitDy=0;entryX=0.5;entryY=1;entryDx=0;entryDy=0;" edge="1" parent="1" source="WLfPuaKVmuc7hhtlGHbA-28" target="WLfPuaKVmuc7hhtlGHbA-93">
          <mxGeometry width="50" height="50" relative="1" as="geometry">
            <mxPoint x="-530" y="290" as="sourcePoint" />
            <mxPoint x="-480" y="240" as="targetPoint" />
          </mxGeometry>
        </mxCell>
        <mxCell id="WLfPuaKVmuc7hhtlGHbA-114" value="" style="endArrow=none;html=1;rounded=0;entryX=0;entryY=0.5;entryDx=0;entryDy=0;exitX=1;exitY=0.5;exitDx=0;exitDy=0;" edge="1" parent="1" source="WLfPuaKVmuc7hhtlGHbA-28" target="WLfPuaKVmuc7hhtlGHbA-25">
          <mxGeometry width="50" height="50" relative="1" as="geometry">
            <mxPoint x="-490" y="420" as="sourcePoint" />
            <mxPoint x="-440" y="370" as="targetPoint" />
          </mxGeometry>
        </mxCell>
        <mxCell id="WLfPuaKVmuc7hhtlGHbA-115" value="" style="endArrow=none;html=1;rounded=0;entryX=0;entryY=0.75;entryDx=0;entryDy=0;exitX=1;exitY=0.5;exitDx=0;exitDy=0;" edge="1" parent="1" source="WLfPuaKVmuc7hhtlGHbA-25" target="WLfPuaKVmuc7hhtlGHbA-10">
          <mxGeometry width="50" height="50" relative="1" as="geometry">
            <mxPoint x="-330" y="360" as="sourcePoint" />
            <mxPoint x="-280" y="310" as="targetPoint" />
          </mxGeometry>
        </mxCell>
        <mxCell id="WLfPuaKVmuc7hhtlGHbA-116" value="Video&lt;br&gt;Link&amp;nbsp;" style="ellipse;whiteSpace=wrap;html=1;" vertex="1" parent="1">
          <mxGeometry x="-50" y="210" width="115" height="65" as="geometry" />
        </mxCell>
        <mxCell id="WLfPuaKVmuc7hhtlGHbA-117" value="Vaildate" style="ellipse;whiteSpace=wrap;html=1;" vertex="1" parent="1">
          <mxGeometry x="-220" y="210" width="115" height="65" as="geometry" />
        </mxCell>
        <mxCell id="WLfPuaKVmuc7hhtlGHbA-118" value="Date" style="ellipse;whiteSpace=wrap;html=1;" vertex="1" parent="1">
          <mxGeometry y="395" width="115" height="65" as="geometry" />
        </mxCell>
        <mxCell id="WLfPuaKVmuc7hhtlGHbA-119" value="Time" style="ellipse;whiteSpace=wrap;html=1;" vertex="1" parent="1">
          <mxGeometry x="-280" y="395" width="115" height="65" as="geometry" />
        </mxCell>
        <mxCell id="WLfPuaKVmuc7hhtlGHbA-120" value="" style="endArrow=none;html=1;rounded=0;entryX=0.5;entryY=1;entryDx=0;entryDy=0;exitX=0.25;exitY=0;exitDx=0;exitDy=0;" edge="1" parent="1" source="WLfPuaKVmuc7hhtlGHbA-10" target="WLfPuaKVmuc7hhtlGHbA-117">
          <mxGeometry width="50" height="50" relative="1" as="geometry">
            <mxPoint x="-220" y="330" as="sourcePoint" />
            <mxPoint x="-170" y="280" as="targetPoint" />
          </mxGeometry>
        </mxCell>
        <mxCell id="WLfPuaKVmuc7hhtlGHbA-121" value="" style="endArrow=none;html=1;rounded=0;exitX=0.75;exitY=0;exitDx=0;exitDy=0;entryX=0;entryY=1;entryDx=0;entryDy=0;" edge="1" parent="1" source="WLfPuaKVmuc7hhtlGHbA-10" target="WLfPuaKVmuc7hhtlGHbA-116">
          <mxGeometry width="50" height="50" relative="1" as="geometry">
            <mxPoint x="-50" y="330" as="sourcePoint" />
            <mxPoint y="280" as="targetPoint" />
          </mxGeometry>
        </mxCell>
        <mxCell id="WLfPuaKVmuc7hhtlGHbA-122" value="" style="endArrow=none;html=1;rounded=0;entryX=0.5;entryY=0;entryDx=0;entryDy=0;exitX=0;exitY=1;exitDx=0;exitDy=0;" edge="1" parent="1" source="WLfPuaKVmuc7hhtlGHbA-10" target="WLfPuaKVmuc7hhtlGHbA-119">
          <mxGeometry width="50" height="50" relative="1" as="geometry">
            <mxPoint x="-280" y="520" as="sourcePoint" />
            <mxPoint x="-230" y="470" as="targetPoint" />
          </mxGeometry>
        </mxCell>
        <mxCell id="WLfPuaKVmuc7hhtlGHbA-123" value="" style="endArrow=none;html=1;rounded=0;entryX=0.5;entryY=0;entryDx=0;entryDy=0;exitX=1;exitY=1;exitDx=0;exitDy=0;" edge="1" parent="1" source="WLfPuaKVmuc7hhtlGHbA-10" target="WLfPuaKVmuc7hhtlGHbA-118">
          <mxGeometry width="50" height="50" relative="1" as="geometry">
            <mxPoint x="-360" y="540" as="sourcePoint" />
            <mxPoint x="-310" y="490" as="targetPoint" />
          </mxGeometry>
        </mxCell>
        <mxCell id="WLfPuaKVmuc7hhtlGHbA-124" value="Count of &lt;br&gt;Words" style="ellipse;whiteSpace=wrap;html=1;" vertex="1" parent="1">
          <mxGeometry x="-157.5" y="60" width="115" height="65" as="geometry" />
        </mxCell>
        <mxCell id="WLfPuaKVmuc7hhtlGHbA-125" value="Count of &lt;br&gt;Sentences" style="ellipse;whiteSpace=wrap;html=1;" vertex="1" parent="1">
          <mxGeometry x="-370" y="25" width="115" height="65" as="geometry" />
        </mxCell>
        <mxCell id="WLfPuaKVmuc7hhtlGHbA-126" value="Most Reply" style="ellipse;whiteSpace=wrap;html=1;" vertex="1" parent="1">
          <mxGeometry x="-370" y="-117.5" width="115" height="65" as="geometry" />
        </mxCell>
        <mxCell id="WLfPuaKVmuc7hhtlGHbA-127" value="Most Views" style="ellipse;whiteSpace=wrap;html=1;" vertex="1" parent="1">
          <mxGeometry x="-157.5" y="-160" width="115" height="65" as="geometry" />
        </mxCell>
        <mxCell id="WLfPuaKVmuc7hhtlGHbA-128" value="" style="endArrow=none;html=1;rounded=0;entryX=0.5;entryY=1;entryDx=0;entryDy=0;exitX=0.5;exitY=0;exitDx=0;exitDy=0;" edge="1" parent="1" source="WLfPuaKVmuc7hhtlGHbA-12" target="WLfPuaKVmuc7hhtlGHbA-127">
          <mxGeometry width="50" height="50" relative="1" as="geometry">
            <mxPoint x="-160" y="-40" as="sourcePoint" />
            <mxPoint x="-110" y="-90" as="targetPoint" />
          </mxGeometry>
        </mxCell>
        <mxCell id="WLfPuaKVmuc7hhtlGHbA-129" value="" style="endArrow=none;html=1;rounded=0;entryX=1;entryY=0.5;entryDx=0;entryDy=0;exitX=0;exitY=0;exitDx=0;exitDy=0;" edge="1" parent="1" source="WLfPuaKVmuc7hhtlGHbA-12" target="WLfPuaKVmuc7hhtlGHbA-126">
          <mxGeometry width="50" height="50" relative="1" as="geometry">
            <mxPoint x="-280" y="-20" as="sourcePoint" />
            <mxPoint x="-230" y="-70" as="targetPoint" />
          </mxGeometry>
        </mxCell>
        <mxCell id="WLfPuaKVmuc7hhtlGHbA-130" value="" style="endArrow=none;html=1;rounded=0;exitX=1;exitY=0.5;exitDx=0;exitDy=0;entryX=0;entryY=1;entryDx=0;entryDy=0;" edge="1" parent="1" source="WLfPuaKVmuc7hhtlGHbA-125" target="WLfPuaKVmuc7hhtlGHbA-12">
          <mxGeometry width="50" height="50" relative="1" as="geometry">
            <mxPoint x="-250" y="60" as="sourcePoint" />
            <mxPoint x="-200" y="10" as="targetPoint" />
          </mxGeometry>
        </mxCell>
        <mxCell id="WLfPuaKVmuc7hhtlGHbA-131" value="" style="endArrow=none;html=1;rounded=0;entryX=0.5;entryY=1;entryDx=0;entryDy=0;exitX=0.5;exitY=0;exitDx=0;exitDy=0;" edge="1" parent="1" source="WLfPuaKVmuc7hhtlGHbA-124" target="WLfPuaKVmuc7hhtlGHbA-12">
          <mxGeometry width="50" height="50" relative="1" as="geometry">
            <mxPoint x="-280" y="170" as="sourcePoint" />
            <mxPoint x="-230" y="120" as="targetPoint" />
          </mxGeometry>
        </mxCell>
        <mxCell id="WLfPuaKVmuc7hhtlGHbA-132" value="" style="endArrow=none;html=1;rounded=0;entryX=0;entryY=0.5;entryDx=0;entryDy=0;" edge="1" parent="1" target="WLfPuaKVmuc7hhtlGHbA-14">
          <mxGeometry width="50" height="50" relative="1" as="geometry">
            <mxPoint y="-20" as="sourcePoint" />
            <mxPoint x="50" y="-70" as="targetPoint" />
          </mxGeometry>
        </mxCell>
        <mxCell id="WLfPuaKVmuc7hhtlGHbA-133" value="" style="endArrow=none;html=1;rounded=0;entryX=0;entryY=0.5;entryDx=0;entryDy=0;" edge="1" parent="1" target="WLfPuaKVmuc7hhtlGHbA-9">
          <mxGeometry width="50" height="50" relative="1" as="geometry">
            <mxPoint x="240" y="-20" as="sourcePoint" />
            <mxPoint x="290" y="-70" as="targetPoint" />
          </mxGeometry>
        </mxCell>
        <mxCell id="WLfPuaKVmuc7hhtlGHbA-134" value="N" style="text;html=1;strokeColor=none;fillColor=none;align=center;verticalAlign=middle;whiteSpace=wrap;rounded=0;" vertex="1" parent="1">
          <mxGeometry x="240" y="-50" width="60" height="30" as="geometry" />
        </mxCell>
        <mxCell id="WLfPuaKVmuc7hhtlGHbA-135" value="1" style="text;html=1;strokeColor=none;fillColor=none;align=center;verticalAlign=middle;whiteSpace=wrap;rounded=0;" vertex="1" parent="1">
          <mxGeometry x="70" y="-52.5" width="60" height="30" as="geometry" />
        </mxCell>
        <mxCell id="WLfPuaKVmuc7hhtlGHbA-136" value="N" style="text;html=1;strokeColor=none;fillColor=none;align=center;verticalAlign=middle;whiteSpace=wrap;rounded=0;" vertex="1" parent="1">
          <mxGeometry x="70" y="302.5" width="60" height="30" as="geometry" />
        </mxCell>
        <mxCell id="WLfPuaKVmuc7hhtlGHbA-137" value="N" style="text;html=1;strokeColor=none;fillColor=none;align=center;verticalAlign=middle;whiteSpace=wrap;rounded=0;" vertex="1" parent="1">
          <mxGeometry x="227.5" y="302.5" width="60" height="30" as="geometry" />
        </mxCell>
        <mxCell id="WLfPuaKVmuc7hhtlGHbA-139" value="N" style="text;html=1;strokeColor=none;fillColor=none;align=center;verticalAlign=middle;whiteSpace=wrap;rounded=0;" vertex="1" parent="1">
          <mxGeometry x="-340" y="320" width="60" height="30" as="geometry" />
        </mxCell>
        <mxCell id="WLfPuaKVmuc7hhtlGHbA-141" value="1" style="text;html=1;strokeColor=none;fillColor=none;align=center;verticalAlign=middle;whiteSpace=wrap;rounded=0;" vertex="1" parent="1">
          <mxGeometry x="-485" y="320" width="60" height="30" as="geometry" />
        </mxCell>
        <mxCell id="WLfPuaKVmuc7hhtlGHbA-142" value="N" style="text;html=1;strokeColor=none;fillColor=none;align=center;verticalAlign=middle;whiteSpace=wrap;rounded=0;" vertex="1" parent="1">
          <mxGeometry x="460" y="450" width="60" height="30" as="geometry" />
        </mxCell>
        <mxCell id="WLfPuaKVmuc7hhtlGHbA-143" value="1" style="text;html=1;strokeColor=none;fillColor=none;align=center;verticalAlign=middle;whiteSpace=wrap;rounded=0;" vertex="1" parent="1">
          <mxGeometry x="460" y="570" width="60" height="30" as="geometry" />
        </mxCell>
        <mxCell id="WLfPuaKVmuc7hhtlGHbA-144" value="" style="endArrow=none;html=1;rounded=0;exitX=1;exitY=0;exitDx=0;exitDy=0;entryX=0;entryY=1;entryDx=0;entryDy=0;" edge="1" parent="1" source="WLfPuaKVmuc7hhtlGHbA-109" target="WLfPuaKVmuc7hhtlGHbA-8">
          <mxGeometry width="50" height="50" relative="1" as="geometry">
            <mxPoint x="350" y="680" as="sourcePoint" />
            <mxPoint x="400" y="630" as="targetPoint" />
          </mxGeometry>
        </mxCell>
        <mxCell id="WLfPuaKVmuc7hhtlGHbA-145" value="" style="endArrow=none;html=1;rounded=0;exitX=0.5;exitY=1;exitDx=0;exitDy=0;entryX=0.5;entryY=0;entryDx=0;entryDy=0;" edge="1" parent="1" source="WLfPuaKVmuc7hhtlGHbA-8" target="WLfPuaKVmuc7hhtlGHbA-108">
          <mxGeometry width="50" height="50" relative="1" as="geometry">
            <mxPoint x="325" y="753" as="sourcePoint" />
            <mxPoint x="370" y="730" as="targetPoint" />
          </mxGeometry>
        </mxCell>
        <mxCell id="WLfPuaKVmuc7hhtlGHbA-146" value="" style="endArrow=none;html=1;rounded=0;exitX=0.75;exitY=1;exitDx=0;exitDy=0;entryX=0.5;entryY=0;entryDx=0;entryDy=0;" edge="1" parent="1" source="WLfPuaKVmuc7hhtlGHbA-8" target="WLfPuaKVmuc7hhtlGHbA-107">
          <mxGeometry width="50" height="50" relative="1" as="geometry">
            <mxPoint x="335" y="763" as="sourcePoint" />
            <mxPoint x="380" y="740" as="targetPoint" />
          </mxGeometry>
        </mxCell>
        <mxCell id="WLfPuaKVmuc7hhtlGHbA-147" value="" style="endArrow=none;html=1;rounded=0;exitX=1;exitY=0.5;exitDx=0;exitDy=0;entryX=0;entryY=0.5;entryDx=0;entryDy=0;" edge="1" parent="1" source="WLfPuaKVmuc7hhtlGHbA-8" target="WLfPuaKVmuc7hhtlGHbA-106">
          <mxGeometry width="50" height="50" relative="1" as="geometry">
            <mxPoint x="345" y="773" as="sourcePoint" />
            <mxPoint x="390" y="750" as="targetPoint" />
          </mxGeometry>
        </mxCell>
        <mxCell id="WLfPuaKVmuc7hhtlGHbA-148" value="" style="endArrow=none;html=1;rounded=0;exitX=1;exitY=0;exitDx=0;exitDy=0;entryX=0.5;entryY=1;entryDx=0;entryDy=0;" edge="1" parent="1" source="WLfPuaKVmuc7hhtlGHbA-8" target="WLfPuaKVmuc7hhtlGHbA-110">
          <mxGeometry width="50" height="50" relative="1" as="geometry">
            <mxPoint x="355" y="783" as="sourcePoint" />
            <mxPoint x="400" y="760" as="targetPoint" />
          </mxGeometry>
        </mxCell>
        <mxCell id="WLfPuaKVmuc7hhtlGHbA-149" value="" style="endArrow=none;html=1;rounded=0;exitX=1;exitY=1;exitDx=0;exitDy=0;entryX=0;entryY=0;entryDx=0;entryDy=0;" edge="1" parent="1" source="WLfPuaKVmuc7hhtlGHbA-111" target="WLfPuaKVmuc7hhtlGHbA-8">
          <mxGeometry width="50" height="50" relative="1" as="geometry">
            <mxPoint x="325" y="753" as="sourcePoint" />
            <mxPoint x="370" y="730" as="targetPoint" />
          </mxGeometry>
        </mxCell>
        <mxCell id="WLfPuaKVmuc7hhtlGHbA-150" value="Request &lt;br&gt;HTTPS" style="ellipse;whiteSpace=wrap;html=1;" vertex="1" parent="1">
          <mxGeometry x="-455" y="790" width="115" height="65" as="geometry" />
        </mxCell>
        <mxCell id="WLfPuaKVmuc7hhtlGHbA-151" value="Request ID" style="ellipse;whiteSpace=wrap;html=1;" vertex="1" parent="1">
          <mxGeometry x="-360" y="880" width="115" height="65" as="geometry" />
        </mxCell>
        <mxCell id="WLfPuaKVmuc7hhtlGHbA-152" value="Web &lt;br&gt;Services" style="ellipse;whiteSpace=wrap;html=1;" vertex="1" parent="1">
          <mxGeometry x="-180" y="890" width="115" height="65" as="geometry" />
        </mxCell>
        <mxCell id="WLfPuaKVmuc7hhtlGHbA-153" value="Page ID" style="ellipse;whiteSpace=wrap;html=1;" vertex="1" parent="1">
          <mxGeometry x="-350" y="680" width="115" height="65" as="geometry" />
        </mxCell>
        <mxCell id="WLfPuaKVmuc7hhtlGHbA-154" value="APIKey" style="ellipse;whiteSpace=wrap;html=1;" vertex="1" parent="1">
          <mxGeometry x="-47.5" y="773.5" width="115" height="65" as="geometry" />
        </mxCell>
        <mxCell id="WLfPuaKVmuc7hhtlGHbA-155" value="" style="endArrow=none;html=1;rounded=0;exitX=0.5;exitY=0;exitDx=0;exitDy=0;entryX=0.5;entryY=1;entryDx=0;entryDy=0;" edge="1" parent="1" source="WLfPuaKVmuc7hhtlGHbA-21" target="WLfPuaKVmuc7hhtlGHbA-10">
          <mxGeometry width="50" height="50" relative="1" as="geometry">
            <mxPoint x="-140" y="410" as="sourcePoint" />
            <mxPoint x="-90" y="360" as="targetPoint" />
          </mxGeometry>
        </mxCell>
        <mxCell id="WLfPuaKVmuc7hhtlGHbA-156" value="" style="endArrow=none;html=1;rounded=0;exitX=0.5;exitY=0;exitDx=0;exitDy=0;" edge="1" parent="1">
          <mxGeometry width="50" height="50" relative="1" as="geometry">
            <mxPoint x="-199" y="785.9999999999995" as="sourcePoint" />
            <mxPoint x="-200" y="690" as="targetPoint" />
          </mxGeometry>
        </mxCell>
        <mxCell id="WLfPuaKVmuc7hhtlGHbA-157" value="" style="endArrow=none;html=1;rounded=0;entryX=0;entryY=0;entryDx=0;entryDy=0;exitX=0.5;exitY=1;exitDx=0;exitDy=0;" edge="1" parent="1" source="WLfPuaKVmuc7hhtlGHbA-153" target="WLfPuaKVmuc7hhtlGHbA-22">
          <mxGeometry width="50" height="50" relative="1" as="geometry">
            <mxPoint x="-365.99999999998863" y="806" as="sourcePoint" />
            <mxPoint x="-551" y="706" as="targetPoint" />
          </mxGeometry>
        </mxCell>
        <mxCell id="WLfPuaKVmuc7hhtlGHbA-158" value="" style="endArrow=none;html=1;rounded=0;entryX=0;entryY=0.5;entryDx=0;entryDy=0;exitX=1;exitY=0.5;exitDx=0;exitDy=0;" edge="1" parent="1" source="WLfPuaKVmuc7hhtlGHbA-150" target="WLfPuaKVmuc7hhtlGHbA-22">
          <mxGeometry width="50" height="50" relative="1" as="geometry">
            <mxPoint x="-331" y="896" as="sourcePoint" />
            <mxPoint x="-281" y="846" as="targetPoint" />
          </mxGeometry>
        </mxCell>
        <mxCell id="WLfPuaKVmuc7hhtlGHbA-159" value="" style="endArrow=none;html=1;rounded=0;entryX=0.5;entryY=0;entryDx=0;entryDy=0;exitX=0.342;exitY=1.11;exitDx=0;exitDy=0;exitPerimeter=0;" edge="1" parent="1" source="WLfPuaKVmuc7hhtlGHbA-22" target="WLfPuaKVmuc7hhtlGHbA-151">
          <mxGeometry width="50" height="50" relative="1" as="geometry">
            <mxPoint x="109" y="646" as="sourcePoint" />
            <mxPoint x="159" y="596" as="targetPoint" />
          </mxGeometry>
        </mxCell>
        <mxCell id="WLfPuaKVmuc7hhtlGHbA-160" value="" style="endArrow=none;html=1;rounded=0;exitX=0.5;exitY=0;exitDx=0;exitDy=0;entryX=0.75;entryY=1;entryDx=0;entryDy=0;" edge="1" parent="1" source="WLfPuaKVmuc7hhtlGHbA-152" target="WLfPuaKVmuc7hhtlGHbA-22">
          <mxGeometry width="50" height="50" relative="1" as="geometry">
            <mxPoint x="109" y="646" as="sourcePoint" />
            <mxPoint x="159" y="596" as="targetPoint" />
          </mxGeometry>
        </mxCell>
        <mxCell id="WLfPuaKVmuc7hhtlGHbA-161" value="" style="endArrow=none;html=1;rounded=0;entryX=0;entryY=0.5;entryDx=0;entryDy=0;" edge="1" parent="1">
          <mxGeometry width="50" height="50" relative="1" as="geometry">
            <mxPoint x="-91" y="806" as="sourcePoint" />
            <mxPoint x="-48.49999999999636" y="806" as="targetPoint" />
          </mxGeometry>
        </mxCell>
        <mxCell id="WLfPuaKVmuc7hhtlGHbA-162" value="N" style="text;html=1;strokeColor=none;fillColor=none;align=center;verticalAlign=middle;whiteSpace=wrap;rounded=0;" vertex="1" parent="1">
          <mxGeometry x="-113.5" y="600" width="60" height="30" as="geometry" />
        </mxCell>
        <mxCell id="WLfPuaKVmuc7hhtlGHbA-163" value="1" style="text;html=1;strokeColor=none;fillColor=none;align=center;verticalAlign=middle;whiteSpace=wrap;rounded=0;" vertex="1" parent="1">
          <mxGeometry x="-200" y="650" width="60" height="30" as="geometry" />
        </mxCell>
        <mxCell id="WLfPuaKVmuc7hhtlGHbA-164" value="" style="endArrow=none;html=1;rounded=0;entryX=0;entryY=0.5;entryDx=0;entryDy=0;" edge="1" parent="1" target="WLfPuaKVmuc7hhtlGHbA-21">
          <mxGeometry width="50" height="50" relative="1" as="geometry">
            <mxPoint x="-200" y="685" as="sourcePoint" />
            <mxPoint x="-150" y="620" as="targetPoint" />
          </mxGeometry>
        </mxCell>
        <mxCell id="WLfPuaKVmuc7hhtlGHbA-165" value="" style="endArrow=none;html=1;rounded=0;entryX=0;entryY=0.25;entryDx=0;entryDy=0;exitX=1;exitY=0.5;exitDx=0;exitDy=0;" edge="1" parent="1" source="WLfPuaKVmuc7hhtlGHbA-21" target="WLfPuaKVmuc7hhtlGHbA-8">
          <mxGeometry width="50" height="50" relative="1" as="geometry">
            <mxPoint x="-50" y="680" as="sourcePoint" />
            <mxPoint y="630" as="targetPoint" />
          </mxGeometry>
        </mxCell>
        <mxCell id="WLfPuaKVmuc7hhtlGHbA-166" value="1" style="text;html=1;strokeColor=none;fillColor=none;align=center;verticalAlign=middle;whiteSpace=wrap;rounded=0;" vertex="1" parent="1">
          <mxGeometry x="-47.5" y="650" width="60" height="30" as="geometry" />
        </mxCell>
      </root>
    </mxGraphModel>
  </diagram>
</mxfile>
